PathFileType	4	(X/Y/Z)	C:/Users/beibeiliu/ov580/test_trc/User2\sequence.27_training_dense_left.trc
DataRate	CameraRate	NumFrames	NumMarkers	Units	OrigDataRate	OrigDataStartFrame	OrigNumFrames
120	120	10	19	mm	120	70	278
Frame#	Time	ThumbCMC			ThumbMCP			ThumbIP			ThumbTip			IndexMCP			IndexPIP			IndexTip			MiddleMCP			MiddlePIP			MiddleTip			RingMCP			RingPIP			RingTip			PinkyMCP			PinkyPIP			PinkyTip			BackHand1			BackHand2			BackHand3	
		X0	Y0	Z0	X1	Y1	Z1	X2	Y2	Z2	X3	Y3	Z3	X4	Y4	Z4	X5	Y5	Z5	X6	Y6	Z6	X7	Y7	Z7	X8	Y8	Z8	X9	Y9	Z9	X10	Y10	Z10	X11	Y11	Z11	X12	Y12	Z12	X13	Y13	Z13	X14	Y14	Z14	X15	Y15	Z15	X16	Y16	Z16	X17	Y17	Z17	X18	Y18	Z18	
69	0.575	-136.92	-9.40508	111.479	-111.83	-8.60485	81.3066	-97.5415	-8.19155	49.8544	-100.703	-14.9722	21.6588	-157.655	41.5967	47.0602	-149.862	48.41	14.82	-135.25	39.0314	-9.51814	-175.76	26.0814	26.2042	-159.694	21.7377	-3.1659	-130.502	-6.61192	-9.58246	-194.431	7.54907	28.4284	-185.172	12.5093	-1.14794	-155.941	0.466509	-16.5926	-209.125	-18.9222	39.0844	-211.885	-6.2771	11.3505	-206.047	-2.3788	-13.9062	-202.349	-15.8286	83.5402	-206.79	-29.4493	112.858	-179.362	2.39561	106.434	
70	0.583333	-137.743	-1.87572	109.129	-116.047	-5.14255	81.3703	-97.4664	-5.39347	49.1761	-100.655	-13.4198	20.7708	-165.134	41.1475	41.9701	-156.905	51.2813	15.6859	-139.26	41.0495	-15.7265	-183.885	24.6592	26.8753	-172.083	23.5183	-7.55912	-139.776	5.75773	-18.1873	-199.876	1.45116	26.3752	-187.672	9.37493	-6.40563	-158.948	-2.22756	-23.9377	-208.239	-25.6355	33.49	-211.546	-19.1031	5.94435	-196.834	-10.223	-21.4883	-203.859	-19.6467	76.6604	-203.933	-28.1339	109.799	-183.469	2.64419	102.702	
71	0.591667	-146.811	7.4586	101.042	-118.464	5.13714	80.6577	-102.851	1.37401	47.9125	-100.036	-10.7749	19.9155	-180.396	32.0252	30.5218	-170.361	43.6712	1.9495	-149.723	38.5583	-23.1633	-198.108	14.2942	21.29	-185.611	19.1152	-13.6572	-149.558	5.73124	-28.584	-202.896	-8.92802	18.8494	-197.45	-5.4398	-9.04279	-163.739	-10.0801	-29.6853	-200.852	-40.3584	31.9409	-201.84	-32.9874	-1.16952	-186.558	-26.5758	-27.301	-204.186	-27.4249	70.7514	-207.53	-34.2921	103.758	-191.326	4.08756	95.0566	
72	0.6	-154.686	11.4131	100.78	-126.071	10.9923	75.4684	-105.259	9.10381	44.874	-106.129	-9.71905	20.1033	-191.994	26.0952	24.2749	-185.069	35.3799	-4.51621	-162.405	35.6216	-26.3986	-207.493	2.18842	13.4265	-194.898	4.9824	-21.6713	-161.143	-0.108161	-34.4081	-206.146	-23.2742	15.313	-197.988	-18.1358	-16.177	-165.06	-16.6035	-31.3709	-196.259	-46.6321	28.545	-195.349	-47.4168	-4.25978	-177.328	-44.0598	-29.4363	-206.312	-36.9428	70.6493	-208.282	-39.5787	104.545	-199.701	-3.6007	91.1852	
73	0.608333	-162.356	11.4686	96.5104	-134.842	11.9814	68.1266	-112.61	8.49041	37.3237	-107.537	-9.17854	16.9635	-199.052	20.7343	22.4289	-192.371	32.1973	-9.13616	-167.548	27.3129	-32.4771	-211.075	-4.49472	12.7068	-202.526	-3.66177	-22.1497	-162.095	-6.68893	-35.3442	-206.755	-30.0824	15.2569	-196.181	-26.6687	-18.4882	-162.688	-24.971	-30.1267	-195.777	-54.6652	22.9497	-189.107	-58.5852	-7.66698	-166.387	-47.7995	-27.2395	-205.293	-38.3874	67.0755	-208.051	-47.3672	97.6971	-204.249	-7.81325	85.7768	
74	0.616667	-168.172	9.44032	91.3277	-137.109	15.4462	65.1261	-117.623	7.88255	33.0983	-112.872	-10.6268	13.2019	-204.212	14.9647	17.7359	-197.84	23.3452	-13.0989	-171.836	25.6743	-33.6077	-215.131	-11.1919	7.19924	-201.431	-11.0707	-25.3729	-164.182	-8.95064	-33.1372	-206.82	-34.7049	13.3636	-193.926	-35.1495	-21.8508	-163.886	-29.8184	-26.417	-194.385	-62.0469	23.1064	-187.513	-61.0866	-5.62836	-163.445	-51.7206	-24.4953	-204.508	-47.0504	68.6539	-209.507	-46.0487	100.147	-207.693	-9.89956	85.0878	
75	0.625	-171.56	12.1595	88.713	-142.418	13.2915	62.0729	-122.822	9.44335	32.9552	-118.468	-13.4115	12.3545	-209.521	8.47697	15.0294	-199.923	17.5217	-17.1471	-174.995	22.639	-34.7561	-215.09	-16.5315	6.04337	-197.97	-17.1554	-26.9749	-156.208	-13.8627	-25.0389	-204.807	-42.3102	7.91187	-189.898	-36.1362	-20.5714	-151.385	-31.1358	-19.0762	-192.081	-62.3517	23.9989	-184.122	-65.8425	-7.57907	-159.708	-51.1181	-23.1463	-207.197	-44.8183	63.6026	-209.316	-48.6685	101.119	-211.808	-15.2185	86.1326	
76	0.633333	-175.497	11.4615	84.8815	-146.434	14.4721	60.2519	-129.658	4.69675	29.6673	-123.71	-15.4001	8.94302	-212.222	9.06616	16.4667	-204.749	17.3046	-17.1509	-178.517	15.9758	-35.4222	-213.848	-20.9131	1.36591	-191.895	-21.0025	-27.7733	-154.701	-13.8912	-19.6477	-201.52	-41.4218	6.41941	-178.32	-40.6936	-20.796	-147.456	-32.0801	-11.1251	-191.038	-66.9013	20.7087	-179.598	-65.9475	-8.36518	-151.062	-49.9768	-22.118	-206.22	-49.6267	67.0522	-210.204	-55.6986	95.6141	-215.046	-18.1907	80.343	
77	0.641667	-178.61	5.54532	86.9629	-151.442	10.2872	58.3315	-131.2	5.31199	27.7923	-127.324	-16.5945	9.58054	-213.116	1.86306	13.6761	-205.385	11.3084	-19.0259	-176.744	12.3793	-37.6162	-212.127	-23.007	1.67381	-189.818	-20.8004	-26.1745	-151.888	-18.1508	-12.1519	-195.929	-45.9489	3.07083	-169.696	-42.2775	-17.8265	-139.871	-31.0951	-1.4839	-190.407	-66.6648	18.8091	-175.693	-64.3489	-10.4051	-151.913	-49.8691	-17.1162	-208.934	-54.7318	64.0189	-208.692	-57.7258	97.0649	-215.853	-22.2264	79.8581	
78	0.65	-176.873	7.68145	87.614	-151.026	8.63712	56.1414	-132.661	2.04194	28.0367	-130.111	-20.813	11.0169	-211.12	2.03598	11.4494	-204.813	11.2617	-17.253	-177.563	12.1062	-35.6424	-208.705	-28.5766	3.22906	-181.547	-21.9252	-26.197	-149.095	-16.0865	-8.725	-194.364	-47.4043	5.49924	-166.693	-44.5771	-17.2843	-139.892	-33.1559	-0.525682	-187.873	-67.6217	22.9002	-174.314	-64.0768	-11.1442	-149.39	-51.1292	-18.1626	-205.506	-53.0812	66.4547	-207.776	-57.4538	95.4645	-213.028	-20.0522	81.4447	
